<svg xmlns="https://www.w3.org/2000/svg" width="500" height="500" viewBox="0 0 500 500" version="1.1"><path d="M 109.283 96.250 C 109.557 96.938, 119.699 114.600, 131.821 135.500 L 153.862 173.500 279.181 173.738 L 404.500 173.977 424.500 139.359 C 435.500 120.320, 445.775 102.550, 447.333 99.871 L 450.165 95 279.476 95 C 143.325 95, 108.887 95.253, 109.283 96.250 M 162.560 210.750 C 160.089 215.012, 133.798 260.350, 104.136 311.500 L 50.206 404.500 94.853 404.761 C 119.409 404.904, 139.958 404.846, 140.518 404.631 C 141.079 404.416, 157.482 376.736, 176.971 343.120 L 212.406 282 277.095 282 L 341.785 282 364.392 242.922 C 376.827 221.429, 387 203.654, 387 203.422 C 387 203.190, 337.512 203, 277.027 203 L 167.054 203 162.560 210.750 M 237.340 317.250 C 239.272 320.688, 251.414 341.725, 264.322 364 L 287.793 404.500 333.462 404.760 C 358.580 404.903, 378.939 404.678, 378.705 404.260 C 378.471 403.842, 366.250 382.688, 351.548 357.250 L 324.815 311 279.322 311 L 233.828 311 237.340 317.250" stroke="none" fill="#8c0404" fill-rule="evenodd"/></svg>